<svg xmlns="http://www.w3.org/2000/svg" width="200" height="auto" fill="none" viewBox="-774.711 98.635 670.689 627.805">
  <g class="fills">
    <path fill="#f0e5d1" d="M-107.32 259.89c-6.99 3.16-8.95 7.8-15.65 12.83-6.7 5.03-15.89 9.05-12.73-1.77s-2.68-4.88-10.82-1.63c-8.14 3.26-7.47-.96-25.18-9.48s-32.17-4.6-41.17-5.46c-9-.86-17.14 5.46-23.65 6.32-6.51.86-10.63 5.55-19.63 7.09-9 1.53-9.38 5.46-21.45 9.77-12.06 4.31-6.32 7.09-19.44 10.72-13.12 3.64-14.46 11.3-16.09 13.69-1.63 2.39-7.47 3.64-8.71-7.56-1.24-11.2-7.37-11.68-15.99-15.61-8.62-3.93-12.11-3.97-15.27-8.62-3.16-4.64-3.45-4.31-9.91-5.65-6.46-1.34-4.74-5.07-10.34-10.24s-6.13-6.32-8.9-12.35c-2.78-6.03.43-7.23.38-13.36-.05-6.13-4.21-8.09-4.16-12.49.05-4.4 1.48-10.91-2.01-16.99-3.49-6.08-5.46-6.03-7.28-14.41-1.82-8.38-5.54-7.95-8.82-12.16-3.29-4.21-.1-3.7 4.34-4.98 4.5-1.29 1.94-4.23 5.11-10.1 2.87-5.32 3.57-11.55 2.28-17.45-1.32-6.05-1.43-5.91 2.48-7.65 3.96-1.76 2.84-2.49 8.81-3.35 5.97-.86 1.15-2.97-3.29-4.85-4.44-1.88-5.49-5.36-11.81-14.49-6.32-9.13-15.83-12.26-29.43-10.6-13.6 1.66-22.6 13.72-23.62 24.51-1.02 10.79.96 19.47 5.23 22.66 4.28 3.19.96 4.47 3.7 11.49 2.74 7.02-5.11 13.85-5.3 18.7-.19 4.85-1.63 5.59-8.14 16.02-6.51 10.44-4.4 28.15-1.63 36.77 2.78 8.62 1.44 7.66 2.3 20.2.86 12.54 3.02 16.76-.19 22.79-3.21 6.03-1.91 9.72-.77 15.75 1.15 6.03 3.97 3.93.19 8.38-3.78 4.45-3.35 3.35-9.19-1.24-5.84-4.6-6.8 5.17-5.94 17.04.86 11.87-1.15 18.1-8.81 14.07-7.66-4.02-9 .57-10.34 7.18-1.34 6.61-1.63 6.32-5.6 5.84-3.97-.48-10.04-2.01-28.04-6.1s-30.19-4.53-46.91-6c-16.72-1.47-39.83 3-50.43 7.57-10.6 4.57-9.51 4.94-18.64 3.92-9.13-1.02-18.19 2.74-34.15-2.11-15.96-4.85-30.61.51-49.56 10.18-18.96 9.67-20.78 31.21-27 43.85-6.22 12.64-7.66 30.93-9 44.62-1.34 13.69-7.56 20.87-14.45 37.53s1.24 27.19 1.24 27.19-1.63-7.37-1.15-13.6c.48-6.22 6.32-12.93 3.73-2.2-2.59 10.72 3.93 16.47 2.11 31.79-1.82 15.32 2.78 26.81 9.19 40.98 6.41 14.17 20.3 17.52 20.3 17.52-8.23-9.38-7.18-18.96-7.18-30.93 0-11.97 3.06-22.69 3.16-12.64.1 10.05-.1 9.29 6.8 19.63 6.89 10.34 1.15 22.02 1.15 22.02s10.24-12.64 5.27-21.83c-4.98-9.19-5.46-13.4-6.32-24.89-.86-11.49 1.24-19.05 7.18-8.81 5.94 10.24 1.24 25.38 1.24 25.38s7.4-7.66 4.85-17.75c-2.55-10.09-4.47-18.64 2.81-10.47 7.28 8.17 9.96 22.34 9.96 22.34s.13-16.85-11.23-30.13c-11.36-13.28-6.19-32.81-3.38-42.45 2.81-9.64 4.79-19.85 7.85-10.72 3.06 9.13-7.12 23.11 2.07 9.22 9.19-13.88 2.59-20.07 6.54-25.95 3.96-5.87 8.55-13.66 8.43-6.26-.13 7.4-6.38 13.21-6.38 13.21s1.53.06 7.02-4.28c5.49-4.34 7.6-12.77 8.17-19.28.57-6.51 2.36-9.13 5.11-.96 2.74 8.17.7 14.36.7 14.36 6-6.89 2.74-14.36 1.53-24.57-1.21-10.21 1.34-11.74 4.4-22.15 3.06-10.4-1.91-16.53 3.13-22.98 5.04-6.45 6.19-6.45 10.53-3.51 4.34 2.94 1.6 6.38-6.06 20.68s-5.68 32.23-7.28 45.64c-1.6 13.4 1.47 25.02 5.3 37.47s10.09 22.72 10.28 29.17c.19 6.45-.51 12.7-8.81 25.66s-25.91 26.81-39.51 32.62c-13.6 5.81-6.51 12.06-7.28 21.38-.77 9.32 1.21 16.34-1.98 22.02s-3.26 8.74-4.15 16.4c-.89 7.66-6.77 17.74-7.28 26.17-.51 8.43-6.13 12.51-7.72 21.06-1.6 8.55-4.28 8.94-4.47 14.74-.19 5.81-1.02 5.36-9.51 2.23-8.49-3.13-10.02-.96-9.51 7.28.51 8.23 1.4 8.3-2.81 22.85s12.13 3.38 21.83-3.38c9.7-6.77 13.09-10.91 20.55-17.43 7.47-6.51 14.01-8.33 15.73-19.44 1.72-11.11 3.64-26.23 8.71-45.86s4.12-20.01 10.72-29.2c6.61-9.19 13.98-17.14 23.17-25.85 9.19-8.71 17.23-9 27.1-22.98 9.86-13.98 19.82-17.14 28.91-22.4 9.1-5.27 9.86-7.95 10.82-5.27.96 2.67 1.24 3.84 1.63 17.43.38 13.6-1.05 21.06-5.65 34.56-4.6 13.5-1.72 18.57 7.28 29.68s4.98 7.44 11.87 22.12c6.89 14.68 16.98 23.17 20.62 38.68 3.64 15.51 9.89 16.09 12.77 25.66 2.87 9.57 5.49 9.38 10.72 10.4 5.23 1.02 10.4 2.17 3 15.26s7.56 14.65 22.02 17.52c14.46 2.87 20.01 3.35 13.31-11.11-6.7-14.46-3.45-11.97-10.44-20.97-6.99-9-5.62-13.79-10.6-27.7-4.98-13.91-20.94-29.49-27.45-44.68-6.51-15.19-10.34-8.17-10.72-21.06-.38-12.89-3.96-19.4 1.15-41.25 5.11-21.84 4.6-26.48 5.55-40.14.96-13.66 4.34-16.47 6.89-26.68s4.21-8.81 16.09-5.04c11.87 3.77 12.38 2.62 27.19 9.32s17.3 6 33.26 10.98c15.96 4.98 26.81 4.98 39.64 5.94 12.83.96 25.79 2.11 34.53 3.38 8.74 1.28 11.87-1.34 13.6 3 1.72 4.34 6.57 5.87 13.66 3.51 7.09-2.36 9.96 1.15 12.96-.77s2.36-4.72 8.17-3.96c5.81.77 3.38 2.43 5.04 9.77 1.66 7.34 1.6 8.74-2.36 33.89s3.64 42.45-.89 50.17c-4.53 7.72 1.34 12.06-5.3 16.34-6.64 4.28-3.7 8.36-11.43 15-7.73 6.64-6.7 12-16.09 20.94-9.38 8.94-11.43 9.64-17.36 18.32-5.94 8.68-2.62 5.55-12.06.57-9.44-4.98-9.19 3.06-14.11 7.09-4.91 4.02-3.26 10.4-3.38 20.23-.13 9.83-1.28 16.66 6.45 10.39 7.72-6.27 6.13-4.33 14.74-6.5 8.62-2.17 6.32-5.36 13.66-10.66s11.49-.57 17.87-4.15c6.38-3.58 13.09-15.32 19.6-24.64 6.51-9.32 16.28-20.43 21.64-28.34 5.36-7.91 9.13-14.87 13.02-24.13 3.89-9.26 4.02-17.87 5.3-28.91 1.28-11.04 4.53-15.57 6.51-24.83 1.98-9.26 10.02-26.62 9.64-33.57-.38-6.96 6.32-2.23 13.08 3.51 6.77 5.74 7.6 8.87 13.85 18.19 6.26 9.32 11.94 15.45 19.47 25.02 7.53 9.57 11.3 13.4 14.04 20.94 2.74 7.53 3.83 10.34 8.17 14.55 4.34 4.21 6.19 2.04 7.85 8.43 1.66 6.38 4.79 4.34 7.85 14.04 3.06 9.7 5.74 11.3 8.68 19.02 2.94 7.72 7.72 11.87 9 19.09 1.28 7.21 8.55 9.57 17.11 14.87 8.55 5.3 8.23 5.81 5.74 15.26s4.4 14.23 12.06 12.45c7.66-1.79 11.11-.64 21.57-1.79 10.47-1.15 4.02-6-.83-14.23s-6.45-10.15-13.15-16.4c-6.7-6.26-5.23-6.7-8.17-14.87-2.94-8.17-11.43-13.21-17.87-25.47-6.45-12.26-11.87-18.7-15.77-30.51-3.89-11.81-7.4-9.13-12.57-20.49-5.17-11.36-13.47-20.36-20.04-36-6.57-15.64-10.6-22.21-16.08-38.81-5.49-16.6-6.83-15.96-2.68-22.6 4.15-6.64 7.72-8.87 7.25-14.68-.47-5.81 2.26-8.55 2.51-18.83.26-10.28-2.11-22.28-2.17-33.26-.06-10.98-1.91-16.09 3.7-24.06 4.42-6.28 6.07-11.69 6.58-13.71.11-.45.59-.71 1.03-.54 1.52.57 4.95 1.95 9.08 4.3 5.62 3.19 5.49 3.7 7.84 6.77 2.35 3.07 2.63 3.83 6.85 4.69 4.21.86 3.45-3.4 3.35 1.82-.1 5.22 4.16 4.12 6.56 8.43 2.39 4.31 2.49 6.18 6.65 5.41 4.16-.77 7.52 2.68 14.51 6.27 6.99 3.59 7.8 3.21 12.93-1.01 5.12-4.21 2.87-2.73 9-2.73s5.51-7.71 5.74-18.1c.23-10.39 0-14.55.24-21.21.24-6.65 2.01-6.42 2.54-11.2.53-4.79-2.54-3.02.62-13.84s-1.05-16.18 5.94-25.95-3.35-11.2 3.93-20.78c7.28-9.57 5.6-17.28 2.39-22.84-3.21-5.55-2.73-5.41 4.07-9.29 6.8-3.88 5.6-2.87 11.11-12.21s10.91-15.56 3.94-12.34Zm-261.21 52.74c-4.02-.06-5.62 3.26-10.53 1.85-4.91-1.4-2.43-2.3.51-4.98 2.94-2.68-1.12-7.44-1.12-7.44-.77-1.07-1.18-1.76 1.63-.35 2.81 1.4 2.3 3.32 7.53 6.73 5.23 3.41 6 4.25 1.98 4.19Zm156.47 45.02c1.53-3.64 1.72-2.25 3.59 0 1.87 2.25 3.83 3.4 4.55 6.04.72 2.64-1.01 2.25-6.22.81-4.61-1.27-4.64-1.27-4.58-1.25h.02-.02c-2.4-.58 1.14-1.97 2.66-5.6Zm-5.37 13.55c.48-2.68 1.48-3.26 1.48-3.26 1.1-.48 2.68.34 6.13 2.11 3.45 1.77 2.3 1.96 5.46 2.06 3.16.1 3.54 3.21 2.82 5.46-.72 2.25-3.02-.48-7.85-1.96-4.84-1.48-8.52-1.72-8.04-4.41Zm16.12 35.84c-2-.73-2.91-1.63-.97-2.62 1.95-.99.35-1.91.35-1.91-1.09-.57.97-.62 2.48 0s.65 1.53.97 3.32c.32 1.79-.83 1.95-2.83 1.21Zm7.81-4.47c-2.55 0-2.2 2.74-4.05-.29-1.85-3.03-3.51-2.59-7.53-2.65-4.02-.06-4.79-2.17-7.76-5.74-2.97-3.57-10.12-5.52-10.12-5.52-1.59-.5 0-1.31 1.34-4.98 1.34-3.67.38-6.22 4.85-3.51s5.36 5.94 11.78 8.27c6.41 2.33 2.36 2.52 6.7 4.37s2.49 2.07 4.79 6.54c2.3 4.47 2.55 3.51 0 3.51Z" class="uuid-fe291490-0702-437e-a049-3930ef78b512"/>
  </g>
</svg>